<svg xmlns="http://www.w3.org/2000/svg" viewBox="0 0 100 100" role="img" aria-label="GitHub Actions Gateway">
  <rect width="100" height="100" fill="#0B1220"/>
  <g transform="translate(18,18) scale(0.64)">
    <path d="M50.00 3.00 L61.12 15.76 L50.00 21.00 Z" fill="#46a8ff" stroke="#0B1220" stroke-width="0.5" stroke-linejoin="round"/>
    <path d="M61.12 15.76 L55.25 33.83 L50.00 21.00 Z" fill="#1f538c" stroke="#0B1220" stroke-width="0.5" stroke-linejoin="round"/>
    <path d="M61.12 15.76 L77.63 11.98 L55.25 33.83 Z" fill="#307edb" stroke="#0B1220" stroke-width="0.5" stroke-linejoin="round"/>
    <path d="M77.63 11.98 L67.05 26.54 L55.25 33.83 Z" fill="#163c65" stroke="#0B1220" stroke-width="0.5" stroke-linejoin="round"/>
    <path d="M77.63 11.98 L79.12 28.84 L67.05 26.54 Z" fill="#307ed7" stroke="#0B1220" stroke-width="0.5" stroke-linejoin="round"/>
    <path d="M79.12 28.84 L63.75 40.01 L67.05 26.54 Z" fill="#164064" stroke="#0B1220" stroke-width="0.5" stroke-linejoin="round"/>
    <path d="M79.12 28.84 L94.70 35.48 L63.75 40.01 Z" fill="#1c547f" stroke="#0B1220" stroke-width="0.5" stroke-linejoin="round"/>
    <path d="M94.70 35.48 L77.58 41.04 L63.75 40.01 Z" fill="#164463" stroke="#0B1220" stroke-width="0.5" stroke-linejoin="round"/>
    <path d="M94.70 35.48 L86.00 50.00 L77.58 41.04 Z" fill="#226b96" stroke="#0B1220" stroke-width="0.5" stroke-linejoin="round"/>
    <path d="M86.00 50.00 L67.00 50.00 L77.58 41.04 Z" fill="#164861" stroke="#0B1220" stroke-width="0.5" stroke-linejoin="round"/>
    <path d="M86.00 50.00 L94.70 64.52 L67.00 50.00 Z" fill="#1c617a" stroke="#0B1220" stroke-width="0.5" stroke-linejoin="round"/>
    <path d="M94.70 64.52 L77.58 58.96 L67.00 50.00 Z" fill="#164e5f" stroke="#0B1220" stroke-width="0.5" stroke-linejoin="round"/>
    <path d="M94.70 64.52 L79.12 71.16 L77.58 58.96 Z" fill="#217c90" stroke="#0B1220" stroke-width="0.5" stroke-linejoin="round"/>
    <path d="M79.12 71.16 L63.75 59.99 L77.58 58.96 Z" fill="#16505e" stroke="#0B1220" stroke-width="0.5" stroke-linejoin="round"/>
    <path d="M79.12 71.16 L77.63 88.02 L63.75 59.99 Z" fill="#1b6d76" stroke="#0B1220" stroke-width="0.5" stroke-linejoin="round"/>
    <path d="M77.63 88.02 L67.05 73.46 L63.75 59.99 Z" fill="#15565c" stroke="#0B1220" stroke-width="0.5" stroke-linejoin="round"/>
    <path d="M77.63 88.02 L61.12 84.24 L67.05 73.46 Z" fill="#20898b" stroke="#0B1220" stroke-width="0.5" stroke-linejoin="round"/>
    <path d="M61.12 84.24 L55.25 66.17 L67.05 73.46 Z" fill="#15565c" stroke="#0B1220" stroke-width="0.5" stroke-linejoin="round"/>
    <path d="M61.12 84.24 L50.00 97.00 L55.25 66.17 Z" fill="#1b7374" stroke="#0B1220" stroke-width="0.5" stroke-linejoin="round"/>
    <path d="M50.00 97.00 L50.00 79.00 L55.25 66.17 Z" fill="#15595b" stroke="#0B1220" stroke-width="0.5" stroke-linejoin="round"/>
    <path d="M50.00 97.00 L38.88 84.24 L50.00 79.00 Z" fill="#208d89" stroke="#0B1220" stroke-width="0.5" stroke-linejoin="round"/>
    <path d="M38.88 84.24 L44.75 66.17 L50.00 79.00 Z" fill="#15575c" stroke="#0B1220" stroke-width="0.5" stroke-linejoin="round"/>
    <path d="M38.88 84.24 L22.37 88.02 L44.75 66.17 Z" fill="#1b7175" stroke="#0B1220" stroke-width="0.5" stroke-linejoin="round"/>
    <path d="M22.37 88.02 L32.95 73.46 L44.75 66.17 Z" fill="#15575c" stroke="#0B1220" stroke-width="0.5" stroke-linejoin="round"/>
    <path d="M22.37 88.02 L20.88 71.16 L32.95 73.46 Z" fill="#20868c" stroke="#0B1220" stroke-width="0.5" stroke-linejoin="round"/>
    <path d="M20.88 71.16 L36.25 59.99 L32.95 73.46 Z" fill="#15535d" stroke="#0B1220" stroke-width="0.5" stroke-linejoin="round"/>
    <path d="M20.88 71.16 L5.30 64.52 L36.25 59.99 Z" fill="#1d6e7f" stroke="#0B1220" stroke-width="0.5" stroke-linejoin="round"/>
    <path d="M5.30 64.52 L22.42 58.96 L36.25 59.99 Z" fill="#164f5f" stroke="#0B1220" stroke-width="0.5" stroke-linejoin="round"/>
    <path d="M5.30 64.52 L14.00 50.00 L22.42 58.96 Z" fill="#2ea4c9" stroke="#0B1220" stroke-width="0.5" stroke-linejoin="round"/>
    <path d="M14.00 50.00 L33.00 50.00 L22.42 58.96 Z" fill="#175167" stroke="#0B1220" stroke-width="0.5" stroke-linejoin="round"/>
    <path d="M14.00 50.00 L5.30 35.48 L33.00 50.00 Z" fill="#32a1dd" stroke="#0B1220" stroke-width="0.5" stroke-linejoin="round"/>
    <path d="M5.30 35.48 L22.42 41.04 L33.00 50.00 Z" fill="#194e6e" stroke="#0B1220" stroke-width="0.5" stroke-linejoin="round"/>
    <path d="M5.30 35.48 L20.88 28.84 L22.42 41.04 Z" fill="#44caff" stroke="#0B1220" stroke-width="0.5" stroke-linejoin="round"/>
    <path d="M20.88 28.84 L36.25 40.01 L22.42 41.04 Z" fill="#216393" stroke="#0B1220" stroke-width="0.5" stroke-linejoin="round"/>
    <path d="M20.88 28.84 L22.37 11.98 L36.25 40.01 Z" fill="#3fadff" stroke="#0B1220" stroke-width="0.5" stroke-linejoin="round"/>
    <path d="M22.37 11.98 L32.95 26.54 L36.25 40.01 Z" fill="#1e5286" stroke="#0B1220" stroke-width="0.5" stroke-linejoin="round"/>
    <path d="M22.37 11.98 L38.88 15.76 L32.95 26.54 Z" fill="#4dc4ff" stroke="#0B1220" stroke-width="0.5" stroke-linejoin="round"/>
    <path d="M38.88 15.76 L44.75 33.83 L32.95 26.54 Z" fill="#2462a2" stroke="#0B1220" stroke-width="0.5" stroke-linejoin="round"/>
    <path d="M38.88 15.76 L50.00 3.00 L44.75 33.83 Z" fill="#3e9dff" stroke="#0B1220" stroke-width="0.5" stroke-linejoin="round"/>
    <path d="M50.00 3.00 L50.00 21.00 L44.75 33.83 Z" fill="#1c4981" stroke="#0B1220" stroke-width="0.5" stroke-linejoin="round"/>
  </g>
</svg>
