<svg xmlns="http://www.w3.org/2000/svg" width="1280" height="640" viewBox="0 0 1280 640" font-family="-apple-system, BlinkMacSystemFont, 'Segoe UI', Helvetica, Arial, sans-serif">
  <defs>
    <linearGradient id="bg" x1="0" y1="0" x2="1" y2="1">
      <stop offset="0" stop-color="#0B1220"/>
      <stop offset="1" stop-color="#161B22"/>
    </linearGradient>
    <linearGradient id="accent" x1="0" y1="0" x2="1" y2="0">
      <stop offset="0" stop-color="#326CE5"/>
      <stop offset="1" stop-color="#2DD4BF"/>
    </linearGradient>
    <linearGradient id="tier" x1="0" y1="0" x2="1" y2="0">
      <stop offset="0" stop-color="#326CE5" stop-opacity="0.95"/>
      <stop offset="1" stop-color="#2DD4BF" stop-opacity="0.55"/>
    </linearGradient>
  </defs>

  <!-- Background -->
  <rect width="1280" height="640" fill="url(#bg)"/>
  <!-- subtle dot grid -->
  <g fill="#1F2A3A" opacity="0.6">
    <circle cx="1090" cy="90"  r="2"/><circle cx="1140" cy="90" r="2"/><circle cx="1190" cy="90" r="2"/><circle cx="1240" cy="90" r="2"/>
    <circle cx="1090" cy="140" r="2"/><circle cx="1140" cy="140" r="2"/><circle cx="1190" cy="140" r="2"/><circle cx="1240" cy="140" r="2"/>
  </g>

  <!-- Logomark (faceted gateway ring) beside the title -->
  <g transform="translate(69.7,179.5) scale(1.42)">
    <path d="M50.00 3.00 L61.12 15.76 L50.00 21.00 Z" fill="#46a8ff" stroke="#0B1220" stroke-width="1.0" stroke-linejoin="round"/>
    <path d="M61.12 15.76 L55.25 33.83 L50.00 21.00 Z" fill="#1f538c" stroke="#0B1220" stroke-width="1.0" stroke-linejoin="round"/>
    <path d="M61.12 15.76 L77.63 11.98 L55.25 33.83 Z" fill="#307edb" stroke="#0B1220" stroke-width="1.0" stroke-linejoin="round"/>
    <path d="M77.63 11.98 L67.05 26.54 L55.25 33.83 Z" fill="#163c65" stroke="#0B1220" stroke-width="1.0" stroke-linejoin="round"/>
    <path d="M77.63 11.98 L79.12 28.84 L67.05 26.54 Z" fill="#307ed7" stroke="#0B1220" stroke-width="1.0" stroke-linejoin="round"/>
    <path d="M79.12 28.84 L63.75 40.01 L67.05 26.54 Z" fill="#164064" stroke="#0B1220" stroke-width="1.0" stroke-linejoin="round"/>
    <path d="M79.12 28.84 L94.70 35.48 L63.75 40.01 Z" fill="#1c547f" stroke="#0B1220" stroke-width="1.0" stroke-linejoin="round"/>
    <path d="M94.70 35.48 L77.58 41.04 L63.75 40.01 Z" fill="#164463" stroke="#0B1220" stroke-width="1.0" stroke-linejoin="round"/>
    <path d="M94.70 35.48 L86.00 50.00 L77.58 41.04 Z" fill="#226b96" stroke="#0B1220" stroke-width="1.0" stroke-linejoin="round"/>
    <path d="M86.00 50.00 L67.00 50.00 L77.58 41.04 Z" fill="#164861" stroke="#0B1220" stroke-width="1.0" stroke-linejoin="round"/>
    <path d="M86.00 50.00 L94.70 64.52 L67.00 50.00 Z" fill="#1c617a" stroke="#0B1220" stroke-width="1.0" stroke-linejoin="round"/>
    <path d="M94.70 64.52 L77.58 58.96 L67.00 50.00 Z" fill="#164e5f" stroke="#0B1220" stroke-width="1.0" stroke-linejoin="round"/>
    <path d="M94.70 64.52 L79.12 71.16 L77.58 58.96 Z" fill="#217c90" stroke="#0B1220" stroke-width="1.0" stroke-linejoin="round"/>
    <path d="M79.12 71.16 L63.75 59.99 L77.58 58.96 Z" fill="#16505e" stroke="#0B1220" stroke-width="1.0" stroke-linejoin="round"/>
    <path d="M79.12 71.16 L77.63 88.02 L63.75 59.99 Z" fill="#1b6d76" stroke="#0B1220" stroke-width="1.0" stroke-linejoin="round"/>
    <path d="M77.63 88.02 L67.05 73.46 L63.75 59.99 Z" fill="#15565c" stroke="#0B1220" stroke-width="1.0" stroke-linejoin="round"/>
    <path d="M77.63 88.02 L61.12 84.24 L67.05 73.46 Z" fill="#20898b" stroke="#0B1220" stroke-width="1.0" stroke-linejoin="round"/>
    <path d="M61.12 84.24 L55.25 66.17 L67.05 73.46 Z" fill="#15565c" stroke="#0B1220" stroke-width="1.0" stroke-linejoin="round"/>
    <path d="M61.12 84.24 L50.00 97.00 L55.25 66.17 Z" fill="#1b7374" stroke="#0B1220" stroke-width="1.0" stroke-linejoin="round"/>
    <path d="M50.00 97.00 L50.00 79.00 L55.25 66.17 Z" fill="#15595b" stroke="#0B1220" stroke-width="1.0" stroke-linejoin="round"/>
    <path d="M50.00 97.00 L38.88 84.24 L50.00 79.00 Z" fill="#208d89" stroke="#0B1220" stroke-width="1.0" stroke-linejoin="round"/>
    <path d="M38.88 84.24 L44.75 66.17 L50.00 79.00 Z" fill="#15575c" stroke="#0B1220" stroke-width="1.0" stroke-linejoin="round"/>
    <path d="M38.88 84.24 L22.37 88.02 L44.75 66.17 Z" fill="#1b7175" stroke="#0B1220" stroke-width="1.0" stroke-linejoin="round"/>
    <path d="M22.37 88.02 L32.95 73.46 L44.75 66.17 Z" fill="#15575c" stroke="#0B1220" stroke-width="1.0" stroke-linejoin="round"/>
    <path d="M22.37 88.02 L20.88 71.16 L32.95 73.46 Z" fill="#20868c" stroke="#0B1220" stroke-width="1.0" stroke-linejoin="round"/>
    <path d="M20.88 71.16 L36.25 59.99 L32.95 73.46 Z" fill="#15535d" stroke="#0B1220" stroke-width="1.0" stroke-linejoin="round"/>
    <path d="M20.88 71.16 L5.30 64.52 L36.25 59.99 Z" fill="#1d6e7f" stroke="#0B1220" stroke-width="1.0" stroke-linejoin="round"/>
    <path d="M5.30 64.52 L22.42 58.96 L36.25 59.99 Z" fill="#164f5f" stroke="#0B1220" stroke-width="1.0" stroke-linejoin="round"/>
    <path d="M5.30 64.52 L14.00 50.00 L22.42 58.96 Z" fill="#2ea4c9" stroke="#0B1220" stroke-width="1.0" stroke-linejoin="round"/>
    <path d="M14.00 50.00 L33.00 50.00 L22.42 58.96 Z" fill="#175167" stroke="#0B1220" stroke-width="1.0" stroke-linejoin="round"/>
    <path d="M14.00 50.00 L5.30 35.48 L33.00 50.00 Z" fill="#32a1dd" stroke="#0B1220" stroke-width="1.0" stroke-linejoin="round"/>
    <path d="M5.30 35.48 L22.42 41.04 L33.00 50.00 Z" fill="#194e6e" stroke="#0B1220" stroke-width="1.0" stroke-linejoin="round"/>
    <path d="M5.30 35.48 L20.88 28.84 L22.42 41.04 Z" fill="#44caff" stroke="#0B1220" stroke-width="1.0" stroke-linejoin="round"/>
    <path d="M20.88 28.84 L36.25 40.01 L22.42 41.04 Z" fill="#216393" stroke="#0B1220" stroke-width="1.0" stroke-linejoin="round"/>
    <path d="M20.88 28.84 L22.37 11.98 L36.25 40.01 Z" fill="#3fadff" stroke="#0B1220" stroke-width="1.0" stroke-linejoin="round"/>
    <path d="M22.37 11.98 L32.95 26.54 L36.25 40.01 Z" fill="#1e5286" stroke="#0B1220" stroke-width="1.0" stroke-linejoin="round"/>
    <path d="M22.37 11.98 L38.88 15.76 L32.95 26.54 Z" fill="#4dc4ff" stroke="#0B1220" stroke-width="1.0" stroke-linejoin="round"/>
    <path d="M38.88 15.76 L44.75 33.83 L32.95 26.54 Z" fill="#2462a2" stroke="#0B1220" stroke-width="1.0" stroke-linejoin="round"/>
    <path d="M38.88 15.76 L50.00 3.00 L44.75 33.83 Z" fill="#3e9dff" stroke="#0B1220" stroke-width="1.0" stroke-linejoin="round"/>
    <path d="M50.00 3.00 L50.00 21.00 L44.75 33.83 Z" fill="#1c4981" stroke="#0B1220" stroke-width="1.0" stroke-linejoin="round"/>
  </g>

  <!-- Kicker -->
  <text x="80" y="148" fill="#8B949E" font-size="22" font-weight="600" letter-spacing="3">KUBERNETES OPERATOR · SELF-HOSTED RUNNERS</text>

  <!-- Title -->
  <text x="236" y="236" fill="#E6EDF3" font-size="74" font-weight="800" letter-spacing="-1.5">GitHub Actions</text>
  <text x="236" y="318" fill="#E6EDF3" font-size="74" font-weight="800" letter-spacing="-1.5">Gateway</text>

  <!-- Tagline -->
  <text x="80" y="372" fill="#ADBAC7" font-size="26" font-weight="400">Oversubscribe a shared quota without starving expensive runners —</text>
  <text x="80" y="410" fill="#2DD4BF" font-size="27" font-weight="600">higher utilization, lower cost.</text>
  <text x="80" y="448" fill="#8B949E" font-size="22" font-weight="400">An Actions Runner Controller (ARC) alternative.</text>

  <!-- Feature pills mirroring the homepage benefit tiles -->
  <g font-size="19" font-weight="600">
    <g>
      <rect x="80" y="472" width="311" height="50" rx="25" fill="#11202E" stroke="#234055" stroke-width="1.5"/>
      <text x="236" y="504" fill="#9FE7DC" text-anchor="middle">Safe under ResourceQuota</text>
    </g>
    <g>
      <rect x="404" y="472" width="311" height="50" rx="25" fill="#11202E" stroke="#234055" stroke-width="1.5"/>
      <text x="559" y="504" fill="#9FB8F0" text-anchor="middle">No blocked critical jobs</text>
    </g>
    <g>
      <rect x="727" y="472" width="182" height="50" rx="25" fill="#11202E" stroke="#234055" stroke-width="1.5"/>
      <text x="818" y="504" fill="#9FE7DC" text-anchor="middle">No idle GPUs</text>
    </g>
    <g>
      <rect x="921" y="472" width="279" height="50" rx="25" fill="#11202E" stroke="#234055" stroke-width="1.5"/>
      <text x="1061" y="504" fill="#9FB8F0" text-anchor="middle">Per-tenant egress IPs</text>
    </g>
  </g>

  <!-- Right-side four-tier motif -->
  <g transform="translate(964, 196)">
    <text x="118" y="-24" fill="#566273" font-size="18" font-weight="600" letter-spacing="2" text-anchor="middle">FOUR TIERS</text>
    <rect x="0"  y="0"   width="236" height="44" rx="8" fill="url(#tier)" opacity="1.00"/>
    <rect x="0"  y="56"  width="236" height="44" rx="8" fill="url(#tier)" opacity="0.82"/>
    <rect x="0"  y="112" width="236" height="44" rx="8" fill="url(#tier)" opacity="0.64"/>
    <rect x="0"  y="168" width="236" height="44" rx="8" fill="url(#tier)" opacity="0.46"/>
    <g fill="#0B1220" font-size="17" font-weight="700">
      <text x="118" y="28"  text-anchor="middle">Gateway Manager</text>
      <text x="118" y="84"  text-anchor="middle">Gateway Controller</text>
      <text x="118" y="140" text-anchor="middle">Egress Proxy</text>
      <text x="118" y="196" text-anchor="middle">Worker Pod</text>
    </g>
  </g>

  <!-- Footer / repo handle -->
  <text x="80" y="586" fill="#566273" font-size="22" font-weight="500">github.com/actions-gateway/github-actions-gateway</text>
</svg>
